<?xml version="1.0" encoding="UTF-8" standalone="no"?>
<!-- Created with Inkscape (http://www.inkscape.org/) -->

<svg
   width="1942.429"
   height="256.72"
   viewBox="0 0 513.93432 67.923835"
   version="1.1"
   id="svg836"
   inkscape:version="1.1 (1:1.1+202105261517+ce6663b3b7)"
   sodipodi:docname="ScottKrantz-Light.svg"
   xmlns:inkscape="http://www.inkscape.org/namespaces/inkscape"
   xmlns:sodipodi="http://sodipodi.sourceforge.net/DTD/sodipodi-0.dtd"
   xmlns="http://www.w3.org/2000/svg"
   xmlns:svg="http://www.w3.org/2000/svg">
  <sodipodi:namedview
     id="namedview838"
     pagecolor="#ffffff"
     bordercolor="#999999"
     borderopacity="1"
     inkscape:pageshadow="0"
     inkscape:pageopacity="0"
     inkscape:pagecheckerboard="0"
     inkscape:document-units="px"
     showgrid="false"
     units="px"
     width="1942.429px"
     inkscape:zoom="0.62805135"
     inkscape:cx="1079.5296"
     inkscape:cy="222.1156"
     inkscape:window-width="1680"
     inkscape:window-height="1004"
     inkscape:window-x="1920"
     inkscape:window-y="35"
     inkscape:window-maximized="1"
     inkscape:current-layer="layer1" />
  <defs
     id="defs833" />
  <g
     inkscape:label="Layer 1"
     inkscape:groupmode="layer"
     id="layer1">
    <g
       aria-label="Scott Krantz"
       id="text3847"
       style="font-weight:bold;font-size:88.1944px;line-height:1.25;font-family:'Mukti Narrow';-inkscape-font-specification:'Mukti Narrow, Bold';letter-spacing:0px;word-spacing:0px;stroke:#000000;stroke-width:0.529167">
      <path
         d="M 51.025578,21.305609 H 38.666304 Q 38.063413,12.39143 27.642005,11.314838 l -2.454629,-0.08613 q -7.923716,0 -10.335281,4.69394 -0.08613,0.08613 -0.08613,0.08613 -0.689018,1.421101 -0.689018,3.186711 0,4.047985 3.703475,5.899723 2.023993,1.033528 5.641341,1.851738 0.08613,0 0.172255,0.08613 l 2.669947,0.516764 10.033836,1.937866 q 12.78991,2.454629 15.890494,10.507535 1.119655,2.971393 1.119655,7.234697 0,12.31621 -10.722854,17.613041 -6.373423,3.186712 -15.632112,3.186712 -18.9480149,0 -24.5893557,-12.531528 Q 0.59801984,51.708561 0.33963782,46.799302 H 13.215675 q 0.516764,8.784989 10.292217,10.378345 l 4.134113,0.258382 q 9.560135,0 12.187019,-5.296832 0.775146,-1.464165 0.775146,-3.315902 0,-5.124577 -5.081513,-7.406952 -2.583821,-1.162719 -6.976315,-1.937865 l -9.000307,-1.76561 Q 6.842252,35.301302 3.3110311,28.884815 l -0.086127,-0.08613 v -0.08613 q 0,0 -0.086127,-0.08613 -1.6794832,-3.272839 -1.6794832,-8.225161 0,-12.6176552 11.0242998,-17.354659 5.555213,-2.4115655 13.306674,-2.4115655 14.038757,0 20.756689,7.320824 4.478622,4.9523225 4.478622,13.3497375 z"
         id="path841" />
      <path
         d="M 102.31441,36.205639 H 90.514964 q -1.507229,-6.80406 -5.382959,-8.139033 h -0.08613 q -1.421101,-0.516765 -3.358967,-0.516765 -5.469086,0 -7.665333,4.047986 -2.411565,4.435558 -2.411565,11.584127 0,10.722854 5.856659,13.823438 1.937865,1.076592 4.220239,1.076592 5.296832,0 7.579206,-4.866195 v -0.08613 l 0.08613,-0.08613 q 0.602891,-1.507228 1.162719,-3.531221 h 11.799446 q -1.16272,10.938173 -9.603199,15.804367 -4.866195,2.713012 -11.110427,2.713012 -13.952629,0 -19.421715,-10.938173 -2.885266,-5.727468 -2.885266,-13.909565 0,-16.493386 10.464472,-22.694554 5.038449,-2.885266 12.014764,-2.885266 12.143955,0 17.526914,8.612734 1.679487,2.928329 2.497697,6.45955 z"
         id="path843" />
      <path
         d="m 131.85609,17.602134 q 14.55552,0 20.49831,11.024299 3.14365,5.98585 3.14365,14.555521 0,13.995693 -9.17256,20.627498 -5.89973,4.22024 -14.38327,4.22024 -13.73731,0 -19.80929,-10.119963 -3.70347,-6.115041 -3.70347,-15.115348 0,-14.641648 9.43094,-21.23039 5.72747,-3.961857 13.99569,-3.961857 z m 0.0861,9.947707 q -6.41649,0 -9.43094,6.545678 -1.76561,3.703476 -1.76561,8.698862 0,9.344816 5.38295,13.435865 2.58382,1.851738 5.8136,1.851738 6.20117,0 9.30175,-6.201169 1.93787,-3.789603 1.93787,-8.91418 0,-9.947707 -5.64134,-13.73731 -2.15319,-1.507229 -5.59828,-1.679484 z"
         id="path845" />
      <path
         d="m 185.72874,19.367744 v 8.182097 h -6.84712 v 25.92433 q 0,4.047985 1.59336,4.866195 h 0.0861 q 0.77515,0.344509 2.3685,0.344509 l 2.79914,-0.258382 v 8.655798 q -2.97139,0.947401 -7.1055,0.947401 -12.01477,0 -12.10089,-11.196555 V 27.549841 h -6.07198 v -8.182097 h 6.07198 V 6.577834 h 12.35927 v 12.78991 z"
         id="path847" />
      <path
         d="m 215.0551,19.367744 v 8.182097 h -6.84713 v 25.92433 q 0,4.047985 1.59336,4.866195 h 0.0861 q 0.77514,0.344509 2.3685,0.344509 l 2.79914,-0.258382 v 8.655798 q -2.9714,0.947401 -7.10551,0.947401 -12.01476,0 -12.10089,-11.196555 V 27.549841 h -6.07198 v -8.182097 h 6.07198 V 6.577834 h 12.35927 v 12.78991 z"
         id="path849" />
      <path
         d="M 262.12369,44.473864 V 66.005699 H 248.90314 V 1.7116393 h 13.22055 V 29.918343 L 287.22981,1.7116393 h 15.63211 l -25.66594,27.6899397 28.37895,36.60412 h -15.7613 L 268.71243,37.62674 Z"
         id="path851" />
      <path
         d="m 311.5608,18.37728 h 12.35927 v 9.344816 q 3.27284,-7.923715 10.03384,-9.689326 1.59335,-0.430636 3.18671,-0.430636 l 1.50723,0.08613 v 12.531528 l -3.87573,-0.387573 q -10.85205,0 -10.85205,10.852045 V 66.005699 H 311.5608 Z"
         id="path853" />
      <path
         d="m 386.49156,64.498471 v 1.507228 h -13.3928 q -1.4211,-1.679483 -1.4211,-4.780067 -6.50262,6.80406 -14.4694,6.80406 -6.76099,0 -11.11042,-4.478622 -3.35897,-3.617348 -3.35897,-9.818517 0,-12.617655 14.03876,-14.986157 l 4.95232,-0.861274 q 5.98585,-0.990464 7.32082,-1.593355 l 0.43064,-0.258382 q 2.02399,-1.076592 2.11012,-3.703476 0,-4.780068 -7.14857,-4.780068 -5.98585,0 -7.66533,2.842203 v 0.08613 q -0.77515,1.29191 -1.0766,3.617348 h -11.88557 q 1.16272,-16.321131 20.36912,-16.493385 19.42171,0 19.50784,14.641648 v 26.441093 q 0,3.014457 2.28237,5.296832 z M 371.59153,46.88543 v -3.358967 q -1.67948,0.775146 -5.21071,1.507229 l -4.22024,0.775146 q -5.81359,1.248846 -6.80406,4.392494 v 0.08613 q -0.25838,0.81821 -0.25838,2.067057 0,4.306367 4.30637,5.469086 1.07659,0.258382 2.41156,0.258382 7.66534,0 9.34482,-7.320824 0.43064,-1.765611 0.43064,-3.87573 z"
         id="path855" />
      <path
         d="m 394.84592,18.37728 h 12.35928 v 6.890187 q 4.82313,-7.234697 13.13442,-7.665333 0.51676,0 1.16271,0 11.19656,0 14.72778,8.871116 1.20578,3.272839 1.20578,7.622269 v 31.91018 H 425.07662 V 36.636276 q 0,-8.56967 -7.92372,-8.56967 -6.50261,0 -9.0003,4.952322 -0.9474,1.937865 -0.9474,4.392494 v 28.594277 h -12.35928 z"
         id="path857" />
      <path
         d="m 469.69058,19.367744 v 8.182097 h -6.84712 v 25.92433 q 0,4.047985 1.59335,4.866195 h 0.0861 q 0.77515,0.344509 2.3685,0.344509 l 2.79914,-0.258382 v 8.655798 q -2.97139,0.947401 -7.10551,0.947401 -12.01476,0 -12.10089,-11.196555 V 27.549841 h -6.07197 v -8.182097 h 6.07197 V 6.577834 h 12.35928 v 12.78991 z"
         id="path859" />
      <path
         d="m 512.96956,18.37728 v 9.990771 l -23.38357,27.68994 h 24.15872 v 9.947708 h -39.40326 v -9.947708 l 23.55583,-27.68994 H 475.93481 V 18.37728 Z"
         id="path861" />
    </g>
  </g>
</svg>
